<svg id="svg" version="1.1" xmlns="http://www.w3.org/2000/svg" xmlns:xlink="http://www.w3.org/1999/xlink" width="400" height="401.6" viewBox="0, 0, 400,401.6"><g id="svgg"><path id="path0" d="M81.700 0.297 C 80.105 0.373,78.800 0.607,78.800 0.818 C 78.800 1.028,78.001 1.200,77.024 1.200 C 76.047 1.200,75.136 1.380,75.000 1.600 C 74.864 1.820,74.144 2.000,73.400 2.000 C 72.656 2.000,71.936 2.180,71.800 2.400 C 71.664 2.620,71.023 2.800,70.376 2.800 C 69.729 2.800,69.200 2.980,69.200 3.200 C 69.200 3.420,68.660 3.600,68.000 3.600 C 67.340 3.600,66.800 3.780,66.800 4.000 C 66.800 4.220,66.260 4.400,65.600 4.400 C 64.940 4.400,64.400 4.580,64.400 4.800 C 64.400 5.020,63.860 5.200,63.200 5.200 C 62.540 5.200,62.000 5.380,62.000 5.600 C 62.000 5.820,61.640 6.000,61.200 6.000 C 60.760 6.000,60.400 6.180,60.400 6.400 C 60.400 6.620,59.961 6.800,59.424 6.800 C 58.887 6.800,58.336 6.980,58.200 7.200 C 58.064 7.420,57.603 7.600,57.176 7.600 C 56.749 7.600,56.400 7.780,56.400 8.000 C 56.400 8.220,56.040 8.400,55.600 8.400 C 55.160 8.400,54.800 8.580,54.800 8.800 C 54.800 9.020,54.440 9.200,54.000 9.200 C 53.560 9.200,53.200 9.380,53.200 9.600 C 53.200 9.820,52.840 10.000,52.400 10.000 C 51.960 10.000,51.600 10.180,51.600 10.400 C 51.600 10.620,51.364 10.800,51.075 10.800 C 50.787 10.800,50.164 11.160,49.692 11.600 C 49.220 12.040,48.556 12.400,48.217 12.400 C 47.878 12.400,47.600 12.580,47.600 12.800 C 47.600 13.020,47.364 13.200,47.075 13.200 C 46.787 13.200,46.164 13.560,45.692 14.000 C 45.220 14.440,44.596 14.800,44.305 14.800 C 44.014 14.800,43.517 15.160,43.200 15.600 C 42.883 16.040,42.420 16.400,42.171 16.400 C 41.922 16.400,41.154 16.940,40.463 17.600 C 39.772 18.260,39.047 18.800,38.852 18.800 C 38.656 18.800,37.755 19.520,36.848 20.400 C 35.941 21.280,35.024 22.000,34.810 22.000 C 34.304 22.000,23.600 32.702,23.600 33.209 C 23.600 33.422,22.700 34.515,21.600 35.639 C 20.500 36.762,19.600 37.893,19.600 38.152 C 19.600 38.411,19.240 38.883,18.800 39.200 C 18.360 39.517,18.000 40.057,18.000 40.400 C 18.000 40.743,17.640 41.283,17.200 41.600 C 16.760 41.917,16.400 42.457,16.400 42.800 C 16.400 43.143,16.040 43.683,15.600 44.000 C 15.160 44.317,14.800 44.814,14.800 45.105 C 14.800 45.396,14.440 46.020,14.000 46.492 C 13.560 46.964,13.200 47.587,13.200 47.875 C 13.200 48.164,13.020 48.400,12.800 48.400 C 12.580 48.400,12.400 48.760,12.400 49.200 C 12.400 49.640,12.220 50.000,12.000 50.000 C 11.780 50.000,11.600 50.360,11.600 50.800 C 11.600 51.240,11.420 51.600,11.200 51.600 C 10.980 51.600,10.800 51.960,10.800 52.400 C 10.800 52.840,10.620 53.200,10.400 53.200 C 10.180 53.200,10.000 53.560,10.000 54.000 C 10.000 54.440,9.820 54.800,9.600 54.800 C 9.380 54.800,9.200 55.160,9.200 55.600 C 9.200 56.040,9.020 56.400,8.800 56.400 C 8.580 56.400,8.400 56.760,8.400 57.200 C 8.400 57.640,8.220 58.000,8.000 58.000 C 7.780 58.000,7.600 58.360,7.600 58.800 C 7.600 59.240,7.420 59.600,7.200 59.600 C 6.980 59.600,6.800 60.140,6.800 60.800 C 6.800 61.460,6.620 62.000,6.400 62.000 C 6.180 62.000,6.000 62.360,6.000 62.800 C 6.000 63.240,5.820 63.600,5.600 63.600 C 5.380 63.600,5.200 64.140,5.200 64.800 C 5.200 65.460,5.020 66.000,4.800 66.000 C 4.580 66.000,4.400 66.540,4.400 67.200 C 4.400 67.860,4.220 68.400,4.000 68.400 C 3.780 68.400,3.600 68.929,3.600 69.576 C 3.600 70.223,3.420 70.864,3.200 71.000 C 2.980 71.136,2.800 71.867,2.800 72.624 C 2.800 73.381,2.620 74.000,2.400 74.000 C 2.180 74.000,2.000 74.709,2.000 75.576 C 2.000 76.443,1.820 77.264,1.600 77.400 C 1.380 77.536,1.200 78.411,1.200 79.344 C 1.200 80.277,0.975 81.265,0.700 81.540 C -0.035 82.275,-0.035 321.725,0.700 322.460 C 0.975 322.735,1.200 323.723,1.200 324.656 C 1.200 325.589,1.380 326.464,1.600 326.600 C 1.820 326.736,2.000 327.456,2.000 328.200 C 2.000 328.944,2.180 329.664,2.400 329.800 C 2.620 329.936,2.800 330.577,2.800 331.224 C 2.800 331.871,2.980 332.400,3.200 332.400 C 3.420 332.400,3.600 332.940,3.600 333.600 C 3.600 334.260,3.780 334.800,4.000 334.800 C 4.220 334.800,4.400 335.340,4.400 336.000 C 4.400 336.660,4.580 337.200,4.800 337.200 C 5.020 337.200,5.200 337.740,5.200 338.400 C 5.200 339.060,5.380 339.600,5.600 339.600 C 5.820 339.600,6.000 339.960,6.000 340.400 C 6.000 340.840,6.180 341.200,6.400 341.200 C 6.620 341.200,6.800 341.740,6.800 342.400 C 6.800 343.060,6.980 343.600,7.200 343.600 C 7.420 343.600,7.600 343.960,7.600 344.400 C 7.600 344.840,7.780 345.200,8.000 345.200 C 8.220 345.200,8.400 345.560,8.400 346.000 C 8.400 346.440,8.580 346.800,8.800 346.800 C 9.020 346.800,9.200 347.160,9.200 347.600 C 9.200 348.040,9.380 348.400,9.600 348.400 C 9.820 348.400,10.000 348.760,10.000 349.200 C 10.000 349.640,10.180 350.000,10.400 350.000 C 10.620 350.000,10.800 350.360,10.800 350.800 C 10.800 351.240,10.980 351.600,11.200 351.600 C 11.420 351.600,11.600 351.836,11.600 352.125 C 11.600 352.413,11.960 353.036,12.400 353.508 C 12.840 353.980,13.200 354.644,13.200 354.983 C 13.200 355.322,13.380 355.600,13.600 355.600 C 13.820 355.600,14.000 355.836,14.000 356.125 C 14.000 356.413,14.360 357.036,14.800 357.508 C 15.240 357.980,15.600 358.527,15.600 358.724 C 15.600 358.921,16.140 359.646,16.800 360.337 C 17.460 361.028,18.000 361.792,18.000 362.036 C 18.000 362.280,18.540 362.983,19.200 363.600 C 19.860 364.217,20.400 364.906,20.400 365.133 C 20.400 365.360,21.795 366.969,23.500 368.709 C 25.205 370.449,26.792 372.205,27.027 372.610 C 27.261 373.015,27.785 373.539,28.190 373.773 C 28.595 374.008,30.351 375.595,32.091 377.300 C 33.831 379.005,35.424 380.400,35.631 380.400 C 35.838 380.400,36.572 380.940,37.263 381.600 C 37.954 382.260,38.674 382.800,38.863 382.800 C 39.052 382.800,39.772 383.340,40.463 384.000 C 41.154 384.660,41.879 385.200,42.076 385.200 C 42.273 385.200,42.820 385.560,43.292 386.000 C 43.764 386.440,44.387 386.800,44.675 386.800 C 44.964 386.800,45.200 386.980,45.200 387.200 C 45.200 387.420,45.478 387.600,45.817 387.600 C 46.156 387.600,46.820 387.960,47.292 388.400 C 47.764 388.840,48.387 389.200,48.675 389.200 C 48.964 389.200,49.200 389.380,49.200 389.600 C 49.200 389.820,49.560 390.000,50.000 390.000 C 50.440 390.000,50.800 390.180,50.800 390.400 C 50.800 390.620,51.160 390.800,51.600 390.800 C 52.040 390.800,52.400 390.980,52.400 391.200 C 52.400 391.420,52.760 391.600,53.200 391.600 C 53.640 391.600,54.000 391.780,54.000 392.000 C 54.000 392.220,54.360 392.400,54.800 392.400 C 55.240 392.400,55.600 392.580,55.600 392.800 C 55.600 393.020,55.960 393.200,56.400 393.200 C 56.840 393.200,57.200 393.380,57.200 393.600 C 57.200 393.820,57.560 394.000,58.000 394.000 C 58.440 394.000,58.800 394.180,58.800 394.400 C 58.800 394.620,59.149 394.800,59.576 394.800 C 60.003 394.800,60.464 394.980,60.600 395.200 C 60.736 395.420,61.287 395.600,61.824 395.600 C 62.361 395.600,62.800 395.780,62.800 396.000 C 62.800 396.220,63.340 396.400,64.000 396.400 C 64.660 396.400,65.200 396.580,65.200 396.800 C 65.200 397.020,65.740 397.200,66.400 397.200 C 67.060 397.200,67.600 397.380,67.600 397.600 C 67.600 397.820,68.140 398.000,68.800 398.000 C 69.460 398.000,70.000 398.180,70.000 398.400 C 70.000 398.620,70.540 398.800,71.200 398.800 C 71.860 398.800,72.400 398.980,72.400 399.200 C 72.400 399.420,73.120 399.600,74.000 399.600 C 74.880 399.600,75.600 399.780,75.600 400.000 C 75.600 400.220,76.485 400.400,77.567 400.400 C 78.784 400.400,79.597 400.590,79.700 400.900 C 79.945 401.636,323.255 401.636,323.500 400.900 C 323.596 400.613,324.336 400.400,325.233 400.400 C 326.095 400.400,326.800 400.220,326.800 400.000 C 326.800 399.780,327.520 399.600,328.400 399.600 C 329.280 399.600,330.000 399.420,330.000 399.200 C 330.000 398.980,330.619 398.800,331.376 398.800 C 332.133 398.800,332.864 398.620,333.000 398.400 C 333.136 398.180,333.676 398.000,334.200 398.000 C 334.724 398.000,335.264 397.820,335.400 397.600 C 335.536 397.380,335.997 397.200,336.424 397.200 C 336.851 397.200,337.200 397.020,337.200 396.800 C 337.200 396.580,337.740 396.400,338.400 396.400 C 339.060 396.400,339.600 396.220,339.600 396.000 C 339.600 395.780,339.960 395.600,340.400 395.600 C 340.840 395.600,341.200 395.420,341.200 395.200 C 341.200 394.980,341.639 394.800,342.176 394.800 C 342.713 394.800,343.264 394.620,343.400 394.400 C 343.536 394.180,343.997 394.000,344.424 394.000 C 344.851 394.000,345.200 393.820,345.200 393.600 C 345.200 393.380,345.560 393.200,346.000 393.200 C 346.440 393.200,346.800 393.020,346.800 392.800 C 346.800 392.580,347.145 392.400,347.567 392.400 C 347.988 392.400,348.393 392.265,348.467 392.100 C 348.540 391.935,349.455 391.367,350.500 390.837 C 351.545 390.308,352.400 389.723,352.400 389.537 C 352.400 389.352,352.760 389.200,353.200 389.200 C 353.640 389.200,354.000 389.020,354.000 388.800 C 354.000 388.580,354.236 388.400,354.525 388.400 C 354.813 388.400,355.436 388.040,355.908 387.600 C 356.380 387.160,356.927 386.800,357.124 386.800 C 357.321 386.800,358.046 386.260,358.737 385.600 C 359.428 384.940,360.192 384.400,360.436 384.400 C 360.680 384.400,361.383 383.860,362.000 383.200 C 362.617 382.540,363.301 382.000,363.520 382.000 C 363.739 382.000,364.838 381.100,365.961 380.000 C 367.085 378.900,368.135 378.000,368.294 378.000 C 368.684 378.000,375.600 371.100,375.600 370.711 C 375.600 370.543,376.680 369.308,378.000 367.968 C 379.320 366.627,380.400 365.364,380.400 365.161 C 380.400 364.959,380.940 364.228,381.600 363.537 C 382.260 362.846,382.800 362.038,382.800 361.741 C 382.800 361.443,382.950 361.200,383.132 361.200 C 383.315 361.200,383.720 360.705,384.032 360.100 C 384.345 359.495,384.915 358.651,385.300 358.225 C 385.685 357.798,386.000 357.213,386.000 356.925 C 386.000 356.636,386.180 356.400,386.400 356.400 C 386.620 356.400,386.800 356.080,386.800 355.688 C 386.800 355.297,387.160 354.717,387.600 354.400 C 388.040 354.083,388.400 353.503,388.400 353.112 C 388.400 352.720,388.580 352.400,388.800 352.400 C 389.020 352.400,389.200 352.040,389.200 351.600 C 389.200 351.160,389.380 350.800,389.600 350.800 C 389.820 350.800,390.000 350.440,390.000 350.000 C 390.000 349.560,390.180 349.200,390.400 349.200 C 390.620 349.200,390.800 348.840,390.800 348.400 C 390.800 347.960,390.980 347.600,391.200 347.600 C 391.420 347.600,391.600 347.240,391.600 346.800 C 391.600 346.360,391.780 346.000,392.000 346.000 C 392.220 346.000,392.400 345.640,392.400 345.200 C 392.400 344.760,392.580 344.400,392.800 344.400 C 393.020 344.400,393.200 344.040,393.200 343.600 C 393.200 343.160,393.380 342.800,393.600 342.800 C 393.820 342.800,394.000 342.260,394.000 341.600 C 394.000 340.940,394.180 340.400,394.400 340.400 C 394.620 340.400,394.800 340.040,394.800 339.600 C 394.800 339.160,394.980 338.800,395.200 338.800 C 395.420 338.800,395.600 338.260,395.600 337.600 C 395.600 336.940,395.780 336.400,396.000 336.400 C 396.220 336.400,396.400 335.860,396.400 335.200 C 396.400 334.540,396.580 334.000,396.800 334.000 C 397.020 334.000,397.200 333.460,397.200 332.800 C 397.200 332.140,397.380 331.600,397.600 331.600 C 397.820 331.600,398.000 330.880,398.000 330.000 C 398.000 329.120,398.180 328.400,398.400 328.400 C 398.620 328.400,398.800 327.695,398.800 326.833 C 398.800 325.936,399.013 325.196,399.300 325.100 C 399.697 324.968,399.800 310.502,399.800 254.553 L 399.800 184.173 398.315 182.688 C 396.410 180.783,394.293 179.600,392.788 179.600 C 392.135 179.600,391.600 179.420,391.600 179.200 C 391.600 178.978,390.533 178.800,389.200 178.800 C 387.867 178.800,386.800 178.978,386.800 179.200 C 386.800 179.420,386.080 179.600,385.200 179.600 C 384.320 179.600,383.600 179.780,383.600 180.000 C 383.600 180.220,383.326 180.400,382.991 180.400 C 382.199 180.400,378.000 184.599,378.000 185.391 C 378.000 185.726,377.820 186.000,377.600 186.000 C 377.380 186.000,377.200 186.540,377.200 187.200 C 377.200 187.860,377.020 188.400,376.800 188.400 C 376.535 188.400,376.400 208.800,376.400 248.800 C 376.400 288.800,376.265 309.200,376.000 309.200 C 375.771 309.200,375.600 310.400,375.600 312.000 C 375.600 313.600,375.429 314.800,375.200 314.800 C 374.980 314.800,374.800 315.700,374.800 316.800 C 374.800 317.900,374.620 318.800,374.400 318.800 C 374.180 318.800,374.000 319.520,374.000 320.400 C 374.000 321.280,373.820 322.000,373.600 322.000 C 373.380 322.000,373.200 322.540,373.200 323.200 C 373.200 323.860,373.020 324.400,372.800 324.400 C 372.580 324.400,372.400 324.940,372.400 325.600 C 372.400 326.260,372.220 326.800,372.000 326.800 C 371.780 326.800,371.600 327.340,371.600 328.000 C 371.600 328.660,371.420 329.200,371.200 329.200 C 370.980 329.200,370.800 329.549,370.800 329.976 C 370.800 330.403,370.620 330.864,370.400 331.000 C 370.180 331.136,370.000 331.687,370.000 332.224 C 370.000 332.761,369.820 333.200,369.600 333.200 C 369.380 333.200,369.200 333.560,369.200 334.000 C 369.200 334.440,369.020 334.800,368.800 334.800 C 368.580 334.800,368.400 335.160,368.400 335.600 C 368.400 336.040,368.220 336.400,368.000 336.400 C 367.780 336.400,367.600 336.760,367.600 337.200 C 367.600 337.640,367.420 338.000,367.200 338.000 C 366.980 338.000,366.800 338.278,366.800 338.617 C 366.800 338.956,366.440 339.620,366.000 340.092 C 365.560 340.564,365.200 341.187,365.200 341.475 C 365.200 341.764,365.020 342.000,364.800 342.000 C 364.580 342.000,364.400 342.320,364.400 342.712 C 364.400 343.103,364.040 343.683,363.600 344.000 C 363.160 344.317,362.800 344.809,362.800 345.092 C 362.800 345.375,362.260 346.172,361.600 346.863 C 360.940 347.554,360.400 348.268,360.400 348.450 C 360.400 348.632,359.500 349.725,358.400 350.878 C 357.300 352.031,356.400 353.119,356.400 353.295 C 356.400 353.712,351.312 358.800,350.895 358.800 C 350.719 358.800,349.674 359.655,348.572 360.700 C 347.470 361.745,346.081 362.855,345.484 363.168 C 344.888 363.480,344.400 363.885,344.400 364.068 C 344.400 364.250,344.164 364.400,343.875 364.400 C 343.587 364.400,343.002 364.715,342.575 365.100 C 342.149 365.485,341.305 366.055,340.700 366.368 C 340.095 366.680,339.600 367.085,339.600 367.268 C 339.600 367.450,339.240 367.600,338.800 367.600 C 338.360 367.600,338.000 367.780,338.000 368.000 C 338.000 368.220,337.655 368.400,337.233 368.400 C 336.812 368.400,336.407 368.535,336.333 368.700 C 336.141 369.132,332.828 370.800,332.162 370.800 C 331.853 370.800,331.600 370.980,331.600 371.200 C 331.600 371.420,331.240 371.600,330.800 371.600 C 330.360 371.600,330.000 371.780,330.000 372.000 C 330.000 372.220,329.460 372.400,328.800 372.400 C 328.140 372.400,327.600 372.580,327.600 372.800 C 327.600 373.020,327.161 373.200,326.624 373.200 C 326.087 373.200,325.536 373.380,325.400 373.600 C 325.264 373.820,324.623 374.000,323.976 374.000 C 323.329 374.000,322.800 374.180,322.800 374.400 C 322.800 374.620,322.260 374.800,321.600 374.800 C 320.940 374.800,320.400 374.980,320.400 375.200 C 320.400 375.420,319.500 375.600,318.400 375.600 C 317.300 375.600,316.400 375.780,316.400 376.000 C 316.400 376.225,315.275 376.400,313.824 376.400 C 312.407 376.400,311.136 376.580,311.000 376.800 C 310.657 377.355,91.600 377.355,91.600 376.800 C 91.600 376.578,90.533 376.400,89.200 376.400 C 87.867 376.400,86.800 376.222,86.800 376.000 C 86.800 375.780,85.900 375.600,84.800 375.600 C 83.700 375.600,82.800 375.420,82.800 375.200 C 82.800 374.980,82.080 374.800,81.200 374.800 C 80.320 374.800,79.600 374.620,79.600 374.400 C 79.600 374.180,79.060 374.000,78.400 374.000 C 77.740 374.000,77.200 373.820,77.200 373.600 C 77.200 373.380,76.660 373.200,76.000 373.200 C 75.340 373.200,74.800 373.020,74.800 372.800 C 74.800 372.580,74.260 372.400,73.600 372.400 C 72.940 372.400,72.400 372.220,72.400 372.000 C 72.400 371.780,72.051 371.600,71.624 371.600 C 71.197 371.600,70.736 371.420,70.600 371.200 C 70.464 370.980,69.913 370.800,69.376 370.800 C 68.839 370.800,68.400 370.620,68.400 370.400 C 68.400 370.180,68.040 370.000,67.600 370.000 C 67.160 370.000,66.800 369.820,66.800 369.600 C 66.800 369.380,66.440 369.200,66.000 369.200 C 65.560 369.200,65.200 369.020,65.200 368.800 C 65.200 368.580,64.922 368.400,64.583 368.400 C 64.244 368.400,63.580 368.040,63.108 367.600 C 62.636 367.160,62.013 366.800,61.725 366.800 C 61.436 366.800,61.200 366.620,61.200 366.400 C 61.200 366.180,60.840 366.000,60.400 366.000 C 59.960 366.000,59.600 365.850,59.600 365.668 C 59.600 365.485,59.105 365.080,58.500 364.768 C 57.895 364.455,57.051 363.885,56.625 363.500 C 56.198 363.115,55.701 362.800,55.521 362.800 C 55.340 362.800,54.628 362.260,53.937 361.600 C 53.246 360.940,52.508 360.400,52.297 360.400 C 51.794 360.400,40.400 349.006,40.400 348.503 C 40.400 348.292,39.905 347.594,39.300 346.952 C 38.695 346.311,37.945 345.294,37.632 344.693 C 37.320 344.092,36.915 343.600,36.732 343.600 C 36.550 343.600,36.400 343.364,36.400 343.075 C 36.400 342.787,36.040 342.164,35.600 341.692 C 35.160 341.220,34.800 340.556,34.800 340.217 C 34.800 339.878,34.620 339.600,34.400 339.600 C 34.180 339.600,34.000 339.364,34.000 339.075 C 34.000 338.787,33.640 338.164,33.200 337.692 C 32.760 337.220,32.400 336.556,32.400 336.217 C 32.400 335.878,32.220 335.600,32.000 335.600 C 31.780 335.600,31.600 335.161,31.600 334.624 C 31.600 334.087,31.420 333.536,31.200 333.400 C 30.980 333.264,30.800 332.803,30.800 332.376 C 30.800 331.949,30.620 331.600,30.400 331.600 C 30.180 331.600,30.000 331.240,30.000 330.800 C 30.000 330.360,29.820 330.000,29.600 330.000 C 29.380 330.000,29.200 329.460,29.200 328.800 C 29.200 328.140,29.020 327.600,28.800 327.600 C 28.580 327.600,28.400 327.060,28.400 326.400 C 28.400 325.740,28.220 325.200,28.000 325.200 C 27.780 325.200,27.600 324.660,27.600 324.000 C 27.600 323.340,27.420 322.800,27.200 322.800 C 26.980 322.800,26.800 322.080,26.800 321.200 C 26.800 320.320,26.620 319.600,26.400 319.600 C 26.180 319.600,26.000 318.700,26.000 317.600 C 26.000 316.500,25.820 315.600,25.600 315.600 C 25.360 315.600,25.200 314.000,25.200 311.600 C 25.200 309.200,25.040 307.600,24.800 307.600 C 24.534 307.600,24.400 272.133,24.400 202.000 C 24.400 131.867,24.534 96.400,24.800 96.400 C 25.037 96.400,25.200 94.941,25.200 92.824 C 25.200 90.857,25.380 89.136,25.600 89.000 C 25.820 88.864,26.000 87.773,26.000 86.576 C 26.000 85.379,26.180 84.400,26.400 84.400 C 26.620 84.400,26.800 83.680,26.800 82.800 C 26.800 81.920,26.980 81.200,27.200 81.200 C 27.420 81.200,27.600 80.480,27.600 79.600 C 27.600 78.720,27.780 78.000,28.000 78.000 C 28.220 78.000,28.400 77.460,28.400 76.800 C 28.400 76.140,28.580 75.600,28.800 75.600 C 29.020 75.600,29.200 75.060,29.200 74.400 C 29.200 73.740,29.380 73.200,29.600 73.200 C 29.820 73.200,30.000 72.840,30.000 72.400 C 30.000 71.960,30.180 71.600,30.400 71.600 C 30.620 71.600,30.800 71.060,30.800 70.400 C 30.800 69.740,30.980 69.200,31.200 69.200 C 31.420 69.200,31.600 68.840,31.600 68.400 C 31.600 67.960,31.780 67.600,32.000 67.600 C 32.220 67.600,32.400 67.240,32.400 66.800 C 32.400 66.360,32.580 66.000,32.800 66.000 C 33.020 66.000,33.200 65.640,33.200 65.200 C 33.200 64.760,33.380 64.400,33.600 64.400 C 33.820 64.400,34.000 64.122,34.000 63.783 C 34.000 63.444,34.360 62.780,34.800 62.308 C 35.240 61.836,35.600 61.213,35.600 60.925 C 35.600 60.636,35.780 60.400,36.000 60.400 C 36.220 60.400,36.400 60.040,36.400 59.600 C 36.400 59.160,36.550 58.800,36.732 58.800 C 36.915 58.800,37.319 58.305,37.630 57.700 C 37.940 57.095,38.511 56.309,38.897 55.953 C 39.284 55.597,39.600 55.102,39.600 54.854 C 39.600 54.605,40.320 53.659,41.200 52.752 C 42.080 51.845,42.800 50.943,42.800 50.748 C 42.800 50.290,51.879 41.200,52.336 41.200 C 52.526 41.200,53.246 40.660,53.937 40.000 C 54.628 39.340,55.348 38.800,55.537 38.800 C 55.726 38.800,56.446 38.260,57.137 37.600 C 57.828 36.940,58.664 36.400,58.996 36.400 C 59.328 36.400,59.600 36.220,59.600 36.000 C 59.600 35.780,59.836 35.600,60.125 35.600 C 60.413 35.600,61.036 35.240,61.508 34.800 C 61.980 34.360,62.644 34.000,62.983 34.000 C 63.322 34.000,63.600 33.820,63.600 33.600 C 63.600 33.380,63.960 33.200,64.400 33.200 C 64.840 33.200,65.201 33.065,65.203 32.900 C 65.207 32.541,67.144 31.600,67.880 31.600 C 68.166 31.600,68.400 31.420,68.400 31.200 C 68.400 30.980,68.760 30.800,69.200 30.800 C 69.640 30.800,70.000 30.620,70.000 30.400 C 70.000 30.180,70.360 30.000,70.800 30.000 C 71.240 30.000,71.600 29.820,71.600 29.600 C 71.600 29.380,72.140 29.200,72.800 29.200 C 73.460 29.200,74.000 29.020,74.000 28.800 C 74.000 28.580,74.540 28.400,75.200 28.400 C 75.860 28.400,76.400 28.220,76.400 28.000 C 76.400 27.780,76.940 27.600,77.600 27.600 C 78.260 27.600,78.800 27.420,78.800 27.200 C 78.800 26.980,79.520 26.800,80.400 26.800 C 81.280 26.800,82.000 26.620,82.000 26.400 C 82.000 26.180,82.900 26.000,84.000 26.000 C 85.100 26.000,86.000 25.820,86.000 25.600 C 86.000 25.363,87.467 25.200,89.600 25.200 C 91.733 25.200,93.200 25.037,93.200 24.800 C 93.200 24.535,113.733 24.400,154.000 24.400 C 194.267 24.400,214.800 24.265,214.800 24.000 C 214.800 23.780,215.160 23.600,215.600 23.600 C 216.040 23.600,216.400 23.420,216.400 23.200 C 216.400 22.980,216.688 22.800,217.040 22.800 C 217.796 22.800,221.200 19.312,221.200 18.536 C 221.200 18.241,221.380 18.000,221.600 18.000 C 221.820 18.000,222.000 17.460,222.000 16.800 C 222.000 16.140,222.180 15.600,222.400 15.600 C 222.638 15.600,222.800 14.075,222.800 11.824 C 222.800 9.737,222.621 7.937,222.400 7.800 C 222.180 7.664,222.000 7.203,222.000 6.776 C 222.000 6.349,221.820 6.000,221.600 6.000 C 221.380 6.000,221.200 5.714,221.200 5.365 C 221.200 4.207,216.954 0.530,215.301 0.257 C 213.778 0.005,87.031 0.043,81.700 0.297 M278.800 13.000 C 271.653 20.150,265.939 26.000,266.104 26.000 C 266.268 26.000,272.253 20.150,279.403 13.000 C 286.553 5.850,292.266 -0.000,292.099 -0.000 C 291.932 -0.000,285.947 5.850,278.800 13.000 M382.063 3.860 C 380.668 5.290,379.598 6.531,379.685 6.619 C 379.773 6.706,381.089 5.522,382.611 3.989 C 384.133 2.455,385.203 1.214,384.989 1.230 C 384.775 1.247,383.458 2.431,382.063 3.860 M356.006 62.000 C 332.238 85.760,312.650 105.200,312.476 105.200 C 312.303 105.200,286.911 130.400,256.050 161.200 C 225.189 192.000,199.810 217.200,199.651 217.200 C 199.493 217.200,173.933 242.580,142.851 273.600 C 111.769 304.620,86.214 330.000,86.062 330.000 C 85.429 330.000,78.000 337.874,78.000 338.545 C 78.000 338.946,78.360 339.369,78.800 339.484 C 79.240 339.599,79.600 339.852,79.600 340.047 C 79.600 340.241,79.949 340.400,80.376 340.400 C 80.803 340.400,81.264 340.580,81.400 340.800 C 81.536 341.020,82.087 341.200,82.624 341.200 C 83.161 341.200,83.600 341.380,83.600 341.600 C 83.600 341.820,83.949 342.000,84.376 342.000 C 84.803 342.000,85.264 342.180,85.400 342.400 C 85.536 342.620,86.076 342.800,86.600 342.800 C 87.124 342.800,87.664 342.980,87.800 343.200 C 87.936 343.420,88.667 343.600,89.424 343.600 C 90.181 343.600,90.800 343.780,90.800 344.000 C 90.800 344.220,91.509 344.400,92.376 344.400 C 93.243 344.400,94.064 344.580,94.200 344.800 C 94.336 345.020,95.607 345.200,97.024 345.200 C 98.475 345.200,99.600 345.375,99.600 345.600 C 99.600 346.155,289.457 346.155,289.800 345.600 C 289.936 345.380,291.117 345.200,292.424 345.200 C 293.741 345.200,294.800 345.022,294.800 344.800 C 294.800 344.580,295.520 344.400,296.400 344.400 C 297.280 344.400,298.000 344.220,298.000 344.000 C 298.000 343.780,298.720 343.600,299.600 343.600 C 300.480 343.600,301.200 343.420,301.200 343.200 C 301.200 342.980,301.740 342.800,302.400 342.800 C 303.060 342.800,303.600 342.620,303.600 342.400 C 303.600 342.180,303.960 342.000,304.400 342.000 C 304.840 342.000,305.200 341.820,305.200 341.600 C 305.200 341.380,305.740 341.200,306.400 341.200 C 307.060 341.200,307.600 341.020,307.600 340.800 C 307.600 340.580,307.960 340.400,308.400 340.400 C 308.840 340.400,309.200 340.220,309.200 340.000 C 309.200 339.780,309.560 339.600,310.000 339.600 C 310.440 339.600,310.800 339.420,310.800 339.200 C 310.800 338.980,311.160 338.800,311.600 338.800 C 312.040 338.800,312.400 338.620,312.400 338.400 C 312.400 338.180,312.636 338.000,312.925 338.000 C 313.213 338.000,313.836 337.640,314.308 337.200 C 314.780 336.760,315.404 336.400,315.695 336.400 C 315.986 336.400,316.483 336.040,316.800 335.600 C 317.117 335.160,317.625 334.800,317.928 334.800 C 318.231 334.800,318.983 334.260,319.600 333.600 C 320.217 332.940,320.913 332.400,321.148 332.400 C 321.705 332.400,330.800 323.305,330.800 322.748 C 330.800 322.513,331.340 321.817,332.000 321.200 C 332.660 320.583,333.200 319.831,333.200 319.528 C 333.200 319.225,333.560 318.717,334.000 318.400 C 334.440 318.083,334.800 317.586,334.800 317.295 C 334.800 317.004,335.160 316.380,335.600 315.908 C 336.040 315.436,336.400 314.813,336.400 314.525 C 336.400 314.236,336.580 314.000,336.800 314.000 C 337.020 314.000,337.200 313.640,337.200 313.200 C 337.200 312.760,337.380 312.400,337.600 312.400 C 337.820 312.400,338.000 312.040,338.000 311.600 C 338.000 311.160,338.180 310.800,338.400 310.800 C 338.620 310.800,338.800 310.451,338.800 310.024 C 338.800 309.597,338.980 309.136,339.200 309.000 C 339.420 308.864,339.600 308.313,339.600 307.776 C 339.600 307.239,339.780 306.800,340.000 306.800 C 340.220 306.800,340.400 306.260,340.400 305.600 C 340.400 304.940,340.580 304.400,340.800 304.400 C 341.020 304.400,341.200 303.860,341.200 303.200 C 341.200 302.540,341.380 302.000,341.600 302.000 C 341.820 302.000,342.000 301.471,342.000 300.824 C 342.000 300.177,342.180 299.536,342.400 299.400 C 342.620 299.264,342.800 298.353,342.800 297.376 C 342.800 296.399,342.980 295.600,343.200 295.600 C 343.433 295.600,343.600 294.267,343.600 292.400 C 343.600 290.533,343.767 289.200,344.000 289.200 C 344.233 289.200,344.400 287.867,344.400 286.000 L 344.400 282.800 285.200 282.800 C 252.640 282.800,226.000 282.709,226.000 282.597 C 226.000 282.255,241.574 266.800,241.919 266.800 C 242.097 266.800,253.091 256.000,266.350 242.800 C 279.609 229.600,290.589 218.800,290.749 218.800 C 290.909 218.800,301.709 208.180,314.749 195.200 C 327.789 182.220,338.590 171.600,338.750 171.600 C 338.911 171.600,349.891 160.800,363.150 147.600 C 376.409 134.400,387.382 123.600,387.534 123.600 C 387.685 123.600,390.553 120.853,393.905 117.495 L 400.000 111.391 400.000 65.095 C 400.000 35.247,399.861 18.800,399.609 18.800 C 399.395 18.800,379.773 38.240,356.006 62.000 M161.784 130.816 C 153.435 139.167,146.739 146.000,146.903 146.000 C 147.297 146.000,177.313 115.980,177.116 115.783 C 177.033 115.700,170.134 122.464,161.784 130.816 M115.266 269.866 C 94.733 290.436,78.001 307.334,78.083 307.417 C 78.166 307.500,95.146 290.655,115.816 269.984 C 136.486 249.313,153.219 232.415,152.999 232.433 C 152.780 232.451,135.800 249.296,115.266 269.866 " stroke="none" fill="#04a4dc" fill-rule="evenodd"></path><path id="path1" d="M234.801 57.599 C 203.120 89.278,177.200 115.379,177.200 115.600 C 177.200 115.994,119.394 174.000,119.001 174.000 C 118.890 174.000,118.800 147.360,118.800 114.800 L 118.800 55.600 114.800 55.600 C 112.400 55.600,110.800 55.760,110.800 56.000 C 110.800 56.229,109.600 56.400,108.000 56.400 C 106.400 56.400,105.200 56.571,105.200 56.800 C 105.200 57.020,104.480 57.200,103.600 57.200 C 102.720 57.200,102.000 57.380,102.000 57.600 C 102.000 57.820,101.280 58.000,100.400 58.000 C 99.520 58.000,98.800 58.180,98.800 58.400 C 98.800 58.620,98.260 58.800,97.600 58.800 C 96.940 58.800,96.400 58.980,96.400 59.200 C 96.400 59.420,96.040 59.600,95.600 59.600 C 95.160 59.600,94.800 59.780,94.800 60.000 C 94.800 60.220,94.260 60.400,93.600 60.400 C 92.940 60.400,92.400 60.580,92.400 60.800 C 92.400 61.020,92.040 61.200,91.600 61.200 C 91.160 61.200,90.800 61.380,90.800 61.600 C 90.800 61.820,90.440 62.000,90.000 62.000 C 89.560 62.000,89.200 62.180,89.200 62.400 C 89.200 62.620,88.840 62.800,88.400 62.800 C 87.960 62.800,87.600 62.980,87.600 63.200 C 87.600 63.420,87.280 63.600,86.888 63.600 C 86.497 63.600,85.917 63.960,85.600 64.400 C 85.283 64.840,84.743 65.200,84.400 65.200 C 84.057 65.200,83.517 65.560,83.200 66.000 C 82.883 66.440,82.375 66.800,82.072 66.800 C 81.769 66.800,81.017 67.340,80.400 68.000 C 79.783 68.660,79.079 69.200,78.835 69.200 C 78.256 69.200,69.200 78.256,69.200 78.835 C 69.200 79.079,68.660 79.783,68.000 80.400 C 67.340 81.017,66.800 81.769,66.800 82.072 C 66.800 82.375,66.440 82.883,66.000 83.200 C 65.560 83.517,65.200 84.057,65.200 84.400 C 65.200 84.743,64.840 85.283,64.400 85.600 C 63.960 85.917,63.600 86.497,63.600 86.888 C 63.600 87.280,63.420 87.600,63.200 87.600 C 62.980 87.600,62.800 87.960,62.800 88.400 C 62.800 88.840,62.620 89.200,62.400 89.200 C 62.180 89.200,62.000 89.560,62.000 90.000 C 62.000 90.440,61.820 90.800,61.600 90.800 C 61.380 90.800,61.200 91.160,61.200 91.600 C 61.200 92.040,61.020 92.400,60.800 92.400 C 60.580 92.400,60.400 92.940,60.400 93.600 C 60.400 94.260,60.220 94.800,60.000 94.800 C 59.780 94.800,59.600 95.160,59.600 95.600 C 59.600 96.040,59.420 96.400,59.200 96.400 C 58.980 96.400,58.800 96.940,58.800 97.600 C 58.800 98.260,58.620 98.800,58.400 98.800 C 58.180 98.800,58.000 99.520,58.000 100.400 C 58.000 101.280,57.820 102.000,57.600 102.000 C 57.380 102.000,57.200 102.720,57.200 103.600 C 57.200 104.480,57.020 105.200,56.800 105.200 C 56.571 105.200,56.400 106.400,56.400 108.000 C 56.400 109.600,56.229 110.800,56.000 110.800 C 55.734 110.800,55.600 142.533,55.600 205.200 C 55.600 267.867,55.734 299.600,56.000 299.600 C 56.229 299.600,56.400 300.800,56.400 302.400 C 56.400 304.000,56.571 305.200,56.800 305.200 C 57.020 305.200,57.200 305.920,57.200 306.800 C 57.200 307.680,57.380 308.400,57.600 308.400 C 57.820 308.400,58.000 309.120,58.000 310.000 C 58.000 310.880,58.180 311.600,58.400 311.600 C 58.620 311.600,58.800 312.140,58.800 312.800 C 58.800 313.460,58.980 314.000,59.200 314.000 C 59.420 314.000,59.600 314.540,59.600 315.200 C 59.600 315.860,59.780 316.400,60.000 316.400 C 60.220 316.400,60.400 316.760,60.400 317.200 C 60.400 317.640,60.580 318.000,60.800 318.000 C 61.020 318.000,61.200 318.360,61.200 318.800 C 61.200 319.240,61.380 319.600,61.600 319.600 C 61.820 319.600,62.000 319.960,62.000 320.400 C 62.000 323.142,63.009 322.194,108.400 276.800 C 132.819 252.380,152.978 232.400,153.199 232.400 C 153.723 232.400,385.200 0.924,385.200 0.400 C 385.200 0.136,369.480 0.000,338.801 0.000 L 292.402 0.000 234.801 57.599 " stroke="none" fill="#e31c34" fill-rule="evenodd"></path></g></svg>